<?xml version="1.0" encoding="UTF-8" standalone="no"?>
<svg
   version="1.0"
   width="400.651pt"
   height="383.00391pt"
   viewBox="0 0 400.651 383.00391"
   preserveAspectRatio="xMidYMid"
   id="svg162"
   sodipodi:docname="logo_todo_white.svg"
   xmlns:inkscape="http://www.inkscape.org/namespaces/inkscape"
   xmlns:sodipodi="http://sodipodi.sourceforge.net/DTD/sodipodi-0.dtd"
   xmlns="http://www.w3.org/2000/svg"
   xmlns:svg="http://www.w3.org/2000/svg">
  <defs
     id="defs166" />
  <sodipodi:namedview
     id="namedview164"
     pagecolor="#ffffff"
     bordercolor="#000000"
     borderopacity="0.25"
     inkscape:showpageshadow="2"
     inkscape:pageopacity="0.0"
     inkscape:pagecheckerboard="0"
     inkscape:deskcolor="#d1d1d1"
     inkscape:document-units="pt"
     showgrid="false" />
  <g
     inkscape:groupmode="layer"
     id="layer1"
     inkscape:label="Layer 1"
     transform="translate(0,0.00439453)">
    <path
       id="rect4667"
       style="fill:#0b0000;fill-opacity:1;stroke:none;stroke-width:0.75;stroke-linecap:round;stroke-linejoin:round"
       d="m 389.10498,-0.00439453 c -2.82471,0.56763676 -4.09424,1.33007813 -4.09424,1.33007813 l -0.0806,0.011719 c -0.0136,0.020903 0.0267,0.0412 -0.0308,0.062988 -3.99988,1.3999832 -34.59873,17.1994264 -36.69873,18.8994144 -0.8,0.599988 -5.6008,3.600622 -10.70068,6.600586 -5.09988,3.099964 -13.70049,8.600329 -19.00049,12.300293 l -9.70019,6.799804 H 207 105.30029 l -9.500974,2.399414 C 72.899592,54.199842 59.50049,65.700045 51.600586,86.299805 46.600646,99.199649 46.000488,104.80085 46.000488,136.00049 V 163.5 L 30.300293,179.6001 C 21.600401,188.49998 11.199269,198.8 7.2993164,202.5 L 0,209.2998 v 2.40088 l 7.199707,6.89942 c 3.999968,3.79992 14.301041,14.10037 23.000977,22.80029 l 15.799804,15.89941 v 30.09961 c 0.1,33.79976 0.799634,41.69999 4.59961,51.39991 C 60.90001,364.69908 80.700706,379 109.00049,381 c 0.46575,0.0301 0.49151,0.0575 0.66211,0.0864 l 0.67969,0.022 47.56787,0.34863 4.87793,-0.0132 82.7124,-0.44385 93,-0.49951 8.79931,-3.3999 c 20.6998,-7.9 34.69991,-23.20099 40.89991,-44.80079 l 2.2998,-7.80029 v -111 -111 l -2.89892,-8.999998 c -4.2,-13.29987 -8.50059,-21.099885 -16.00049,-29.299805 -2.9,-3.09997 -2.99961,-3.400118 -1.59961,-5.600098 0.8,-1.29998 5.09951,-7.799093 9.49951,-14.499023 16.0998,-24.39976 20.50049,-31.400801 20.50049,-32.800781 0,-0.172445 0.0446,-0.296938 0.0674,-0.449707 l -0.0132,-0.174317 c 0,0 1.14843,-5.9414084 0.25781,-7.1835935 -0.004,-0.00539 -5.6e-4,-5.121e-4 -0.004,-0.00586 -0.0365,-0.03065 -0.0681,-0.038111 -0.1084,-0.086426 C 399.79971,2.7999089 398.6,1.7997004 397.5,1.199707 396.97363,0.89496778 396.64088,0.68725269 396.43213,0.52587891 l -0.0483,-0.0219727 -0.13184,-0.10546875 c 0,0 -0.35878,-0.2034414 -1.03711,-0.40283203 z M 369.89941,27.600586 c 0.5,0.4 -6.70018,12.100144 -17.60009,28.5 -5.1,7.699928 -9.29883,14.199414 -9.29883,14.399414 0,0.3 -2.60087,4.500338 -5.80078,9.300293 -6.9,10.19991 -14.5997,22.199997 -25.59961,39.399907 -4.3,6.69991 -11.2996,17.70029 -15.49951,24.30029 -4.2,6.59991 -10.1001,16 -13.1001,21 -2.9,4.89991 -8.60098,13.8996 -12.50098,19.99951 -3.89991,5.99991 -9.6995,15.50009 -12.89941,21 -3.1,5.49991 -9.39999,15.9002 -13.8999,23.2002 -4.5,7.19991 -9.70049,15.70057 -11.50049,19.00048 -1.8,3.2 -5.69971,9.59981 -8.69971,14.29981 -2.9,4.69991 -8.00059,12.8 -11.10059,18 -3.19991,5.19991 -7.99891,13.09911 -10.79882,17.49902 -2.9,4.4 -8.70058,13.80009 -13.00049,21 -4.3,7.09991 -9.69961,16.10098 -12.09961,20.00098 -2.4,3.79991 -5.8,9.29922 -7.5,12.19922 -1.8,2.89991 -3.80108,5.6999 -4.60108,6.3999 -2.29991,1.9 -2.70017,1.49953 -34.8999,-35.2002 -9.29991,-10.59991 -18.99912,-21.5999 -21.59912,-24.3999 -2.5,-2.7 -6.70098,-7.69951 -9.500976,-10.99951 C 95.699441,283.2 87.39944,273.69991 79.999512,265.5 72.599575,257.20009 62.300248,245.69991 57.300293,240 52.200338,234.20009 44.199467,225.29962 39.499512,220.19971 l -8.499024,-9.39991 4.299317,-4.80029 c 6.499937,-7.39991 40.100658,-43.60009 48.600586,-52.5 4.299955,-4.39991 12.100135,-12.79989 17.600099,-18.7998 5.39991,-5.9 10.1,-10.69922 10.5,-10.69922 0.4,0 1.3998,2.09922 2.2998,4.69922 2.8,8.49991 9.30019,24.49998 16.1001,39.7998 3.7,8.19991 9.89999,22.40048 13.8999,31.40039 l 6.99903,16.40039 4.5,-4.8999 c 2.49991,-2.7 10.60116,-11.40048 18.10107,-19.40039 7.49991,-7.99991 16.7001,-17.90049 20.6001,-22.00049 7.79991,-8.39991 49.5996,-48.89931 61.99951,-60.19922 8.89991,-8.09991 33.20009,-28.399847 40.5,-33.799802 2.6,-1.899982 8.30059,-6.201012 12.60059,-9.500976 15.69982,-11.999892 32.89949,-23.50009 49.29931,-33 5.8,-3.399973 10.79951,-5.998926 10.99951,-5.898926 z m 26.70557,354.982914 -1.66553,0.41601 h 1.66114 z" />
  </g>
</svg>
